<svg width="1218" height="138" viewBox="0 0 1218 138" fill="none" xmlns="http://www.w3.org/2000/svg">
<path d="M67.3828 2.49023V26.2207H49.0723V121.069H18.2373V26.2207H0V2.49023H67.3828ZM103.125 2.49023V29.1504C105.664 26.8066 108.398 25.0488 111.328 23.877C114.307 22.7051 117.48 22.1191 120.85 22.1191C126.025 22.1191 130.42 23.4375 134.033 26.0742C137.695 28.7109 139.917 31.7627 140.698 35.2295C141.528 38.6475 141.943 44.9219 141.943 54.0527V121.069H112.354V52.6611C112.354 46.9971 112.061 43.3594 111.475 41.748C110.938 40.1367 109.692 39.3311 107.739 39.3311C105.933 39.3311 104.712 40.1611 104.077 41.8213C103.442 43.4814 103.125 46.7773 103.125 51.709V121.069H73.5352V2.49023H103.125ZM219.214 74.1943H180.908V95.2148C180.908 99.6094 181.226 102.441 181.86 103.711C182.495 104.98 183.716 105.615 185.522 105.615C187.769 105.615 189.258 104.785 189.99 103.125C190.771 101.416 191.162 98.1445 191.162 93.3105V80.4932H219.214V87.6709C219.214 93.6768 218.823 98.291 218.042 101.514C217.31 104.736 215.552 108.179 212.769 111.841C209.985 115.503 206.445 118.262 202.148 120.117C197.9 121.924 192.554 122.827 186.108 122.827C179.858 122.827 174.341 121.924 169.556 120.117C164.771 118.311 161.035 115.845 158.35 112.72C155.713 109.546 153.882 106.079 152.856 102.319C151.831 98.5107 151.318 92.9932 151.318 85.7666V57.4219C151.318 48.9258 152.466 42.2363 154.761 37.3535C157.056 32.4219 160.815 28.6621 166.04 26.0742C171.265 23.4375 177.271 22.1191 184.058 22.1191C192.358 22.1191 199.194 23.7061 204.565 26.8799C209.985 30.0049 213.77 34.1797 215.918 39.4043C218.115 44.5801 219.214 51.8799 219.214 61.3037V74.1943ZM189.551 58.374V51.2695C189.551 46.2402 189.282 42.9932 188.745 41.5283C188.208 40.0635 187.109 39.3311 185.449 39.3311C183.398 39.3311 182.129 39.9658 181.641 41.2354C181.152 42.4561 180.908 45.8008 180.908 51.2695V58.374H189.551ZM328.345 54.1992H297.51V33.5449C297.51 27.5391 297.168 23.8037 296.484 22.3389C295.85 20.8252 294.409 20.0684 292.163 20.0684C289.624 20.0684 288.013 20.9717 287.329 22.7783C286.646 24.585 286.304 28.4912 286.304 34.4971V89.5752C286.304 95.3369 286.646 99.0967 287.329 100.854C288.013 102.612 289.551 103.491 291.943 103.491C294.238 103.491 295.728 102.612 296.411 100.854C297.144 99.0967 297.51 94.9707 297.51 88.4766V73.6084H328.345V78.2227C328.345 90.4785 327.466 99.1699 325.708 104.297C323.999 109.424 320.166 113.916 314.209 117.773C308.301 121.631 301.001 123.56 292.31 123.56C283.276 123.56 275.83 121.924 269.971 118.652C264.111 115.381 260.229 110.864 258.325 105.103C256.421 99.292 255.469 90.5762 255.469 78.9551V44.3115C255.469 35.7666 255.762 29.3701 256.348 25.1221C256.934 20.8252 258.667 16.6992 261.548 12.7441C264.478 8.78906 268.506 5.68848 273.633 3.44238C278.809 1.14746 284.741 0 291.431 0C300.513 0 308.008 1.75781 313.916 5.27344C319.824 8.78906 323.706 13.1836 325.562 18.457C327.417 23.6816 328.345 31.8359 328.345 42.9199V54.1992ZM364.966 61.5234H337.207V55.0049C337.207 47.4854 338.062 41.6992 339.771 37.6465C341.528 33.5449 345.02 29.9316 350.244 26.8066C355.469 23.6816 362.256 22.1191 370.605 22.1191C380.615 22.1191 388.159 23.9014 393.237 27.4658C398.315 30.9814 401.367 35.3271 402.393 40.5029C403.418 45.6299 403.931 56.2256 403.931 72.29V121.069H375.146V112.427C373.34 115.894 370.996 118.506 368.115 120.264C365.283 121.973 361.89 122.827 357.935 122.827C352.759 122.827 347.998 121.387 343.652 118.506C339.355 115.576 337.207 109.204 337.207 99.3896V91.4062C337.207 84.1309 338.354 79.1748 340.649 76.5381C342.944 73.9014 348.633 70.8252 357.715 67.3096C367.432 63.501 372.632 60.9375 373.315 59.6191C373.999 58.3008 374.341 55.6152 374.341 51.5625C374.341 46.4844 373.95 43.1885 373.169 41.6748C372.437 40.1123 371.191 39.3311 369.434 39.3311C367.432 39.3311 366.187 39.9902 365.698 41.3086C365.21 42.5781 364.966 45.9229 364.966 51.3428V61.5234ZM374.341 74.8535C369.604 78.3203 366.846 81.2256 366.064 83.5693C365.332 85.9131 364.966 89.2822 364.966 93.6768C364.966 98.7061 365.283 101.953 365.918 103.418C366.602 104.883 367.92 105.615 369.873 105.615C371.729 105.615 372.925 105.054 373.462 103.931C374.048 102.759 374.341 99.7314 374.341 94.8486V74.8535ZM444.214 23.877L443.701 32.4463C446.338 28.9795 449.243 26.3916 452.417 24.6826C455.591 22.9736 459.058 22.1191 462.817 22.1191C467.407 22.1191 471.362 23.3643 474.683 25.8545C478.052 28.2959 480.151 31.1279 480.981 34.3506C481.812 37.5732 482.227 43.042 482.227 50.7568V91.6992C482.227 100.537 481.689 106.836 480.615 110.596C479.59 114.307 477.441 117.285 474.17 119.531C470.947 121.729 467.041 122.827 462.451 122.827C458.789 122.827 455.396 121.973 452.271 120.264C449.146 118.555 446.289 116.016 443.701 112.646V134.912H414.111V23.877H444.214ZM452.637 52.1484C452.637 46.1426 452.417 42.5049 451.978 41.2354C451.538 39.9658 450.317 39.3311 448.315 39.3311C446.362 39.3311 445.093 40.0635 444.507 41.5283C443.97 42.9932 443.701 46.5332 443.701 52.1484V92.4316C443.701 98.291 443.994 101.953 444.58 103.418C445.166 104.883 446.436 105.615 448.389 105.615C450.293 105.615 451.465 104.956 451.904 103.638C452.393 102.271 452.637 98.999 452.637 93.8232V52.1484ZM522.51 2.49023V17.9443H492.041V2.49023H522.51ZM522.51 23.877V121.069H492.041V23.877H522.51ZM564.404 10.9131V26.2207H572.388V41.6016H564.404V93.6035C564.404 100 564.722 103.564 565.356 104.297C566.04 105.029 568.799 105.396 573.633 105.396V121.069H561.694C554.956 121.069 550.146 120.801 547.266 120.264C544.385 119.678 541.846 118.384 539.648 116.382C537.451 114.331 536.084 112.012 535.547 109.424C535.01 106.787 534.741 100.635 534.741 90.9668V41.6016H528.369V26.2207H534.741V10.9131H564.404ZM605.347 61.5234H577.588V55.0049C577.588 47.4854 578.442 41.6992 580.151 37.6465C581.909 33.5449 585.4 29.9316 590.625 26.8066C595.85 23.6816 602.637 22.1191 610.986 22.1191C620.996 22.1191 628.54 23.9014 633.618 27.4658C638.696 30.9814 641.748 35.3271 642.773 40.5029C643.799 45.6299 644.312 56.2256 644.312 72.29V121.069H615.527V112.427C613.721 115.894 611.377 118.506 608.496 120.264C605.664 121.973 602.271 122.827 598.315 122.827C593.14 122.827 588.379 121.387 584.033 118.506C579.736 115.576 577.588 109.204 577.588 99.3896V91.4062C577.588 84.1309 578.735 79.1748 581.03 76.5381C583.325 73.9014 589.014 70.8252 598.096 67.3096C607.812 63.501 613.013 60.9375 613.696 59.6191C614.38 58.3008 614.722 55.6152 614.722 51.5625C614.722 46.4844 614.331 43.1885 613.55 41.6748C612.817 40.1123 611.572 39.3311 609.814 39.3311C607.812 39.3311 606.567 39.9902 606.079 41.3086C605.591 42.5781 605.347 45.9229 605.347 51.3428V61.5234ZM614.722 74.8535C609.985 78.3203 607.227 81.2256 606.445 83.5693C605.713 85.9131 605.347 89.2822 605.347 93.6768C605.347 98.7061 605.664 101.953 606.299 103.418C606.982 104.883 608.301 105.615 610.254 105.615C612.109 105.615 613.306 105.054 613.843 103.931C614.429 102.759 614.722 99.7314 614.722 94.8486V74.8535ZM684.961 2.49023V121.069H654.492V2.49023H684.961ZM726.123 2.49023V17.9443H695.654V2.49023H726.123ZM726.123 23.877V121.069H695.654V23.877H726.123ZM797.241 54.9316H771.021V49.6582C771.021 45.166 770.752 42.334 770.215 41.1621C769.727 39.9414 768.457 39.3311 766.406 39.3311C764.746 39.3311 763.501 39.8926 762.671 41.0156C761.841 42.0898 761.426 43.7256 761.426 45.9229C761.426 48.9014 761.621 51.0986 762.012 52.5146C762.451 53.8818 763.696 55.3955 765.747 57.0557C767.847 58.7158 772.119 61.1328 778.564 64.3066C787.158 68.5059 792.798 72.4609 795.483 76.1719C798.169 79.8828 799.512 85.2783 799.512 92.3584C799.512 100.269 798.486 106.25 796.436 110.303C794.385 114.307 790.942 117.407 786.108 119.604C781.323 121.753 775.537 122.827 768.75 122.827C761.23 122.827 754.785 121.655 749.414 119.312C744.092 116.968 740.43 113.794 738.428 109.79C736.426 105.786 735.425 99.7314 735.425 91.626V86.9385H761.646V93.0908C761.646 98.3154 761.963 101.709 762.598 103.271C763.281 104.834 764.6 105.615 766.553 105.615C768.652 105.615 770.117 105.103 770.947 104.077C771.777 103.003 772.192 100.781 772.192 97.4121C772.192 92.7734 771.655 89.8682 770.581 88.6963C769.458 87.5244 763.721 84.0576 753.369 78.2959C744.678 73.4131 739.38 68.9941 737.476 65.0391C735.571 61.0352 734.619 56.2988 734.619 50.8301C734.619 43.0664 735.645 37.3535 737.695 33.6914C739.746 29.9805 743.213 27.124 748.096 25.1221C753.027 23.1201 758.74 22.1191 765.234 22.1191C771.68 22.1191 777.148 22.9492 781.641 24.6094C786.182 26.2207 789.648 28.3691 792.041 31.0547C794.482 33.7402 795.947 36.2305 796.436 38.5254C796.973 40.8203 797.241 44.4092 797.241 49.292V54.9316ZM836.646 23.877L836.133 33.1055C838.428 29.4434 841.162 26.709 844.336 24.9023C847.51 23.0469 851.123 22.1191 855.176 22.1191C863.086 22.1191 869.312 25.7812 873.853 33.1055C876.343 29.4434 879.15 26.709 882.275 24.9023C885.4 23.0469 888.867 22.1191 892.676 22.1191C897.705 22.1191 901.855 23.3398 905.127 25.7812C908.447 28.2227 910.571 31.2256 911.499 34.79C912.427 38.3057 912.891 44.043 912.891 52.002V121.069H884.18V57.7148C884.18 49.4141 883.887 44.2871 883.301 42.334C882.764 40.332 881.47 39.3311 879.419 39.3311C877.319 39.3311 875.952 40.3076 875.317 42.2607C874.731 44.2139 874.438 49.3652 874.438 57.7148V121.069H845.728V59.3262C845.728 49.8047 845.483 44.0918 844.995 42.1875C844.556 40.2832 843.286 39.3311 841.187 39.3311C839.868 39.3311 838.745 39.8438 837.817 40.8691C836.89 41.8457 836.377 43.0664 836.279 44.5312C836.182 45.9473 836.133 48.999 836.133 53.6865V121.069H807.422V23.877H836.646ZM950.537 2.49023H981.299C991.016 2.49023 998.364 3.24707 1003.34 4.76074C1008.37 6.27441 1012.43 9.35059 1015.5 13.9893C1018.58 18.5791 1020.12 26.001 1020.12 36.2549C1020.12 43.1885 1019.02 48.0225 1016.82 50.7568C1014.67 53.4912 1010.4 55.5908 1004 57.0557C1011.13 58.667 1015.97 61.3525 1018.51 65.1123C1021.04 68.8232 1022.31 74.5361 1022.31 82.251V93.2373C1022.31 101.245 1021.39 107.178 1019.53 111.035C1017.72 114.893 1014.82 117.529 1010.82 118.945C1006.81 120.361 998.608 121.069 986.206 121.069H950.537V2.49023ZM981.372 22.7783V49.1455C982.69 49.0967 983.716 49.0723 984.448 49.0723C987.476 49.0723 989.404 48.3398 990.234 46.875C991.064 45.3613 991.479 41.0889 991.479 34.0576C991.479 30.3467 991.138 27.7588 990.454 26.2939C989.771 24.7803 988.867 23.8281 987.744 23.4375C986.67 23.0469 984.546 22.8271 981.372 22.7783ZM981.372 67.6025V100.781C985.718 100.635 988.477 99.9512 989.648 98.7305C990.869 97.5098 991.479 94.5068 991.479 89.7217V78.6621C991.479 73.584 990.942 70.5078 989.868 69.4336C988.794 68.3594 985.962 67.749 981.372 67.6025ZM1063.04 2.49023V121.069H1032.57V2.49023H1063.04ZM1140.67 58.0078V81.8115C1140.67 90.5518 1140.23 96.9727 1139.36 101.074C1138.48 105.127 1136.6 108.936 1133.72 112.5C1130.83 116.016 1127.12 118.628 1122.58 120.337C1118.09 121.997 1112.92 122.827 1107.06 122.827C1100.51 122.827 1094.97 122.119 1090.43 120.703C1085.89 119.238 1082.35 117.065 1079.81 114.185C1077.32 111.255 1075.54 107.739 1074.46 103.638C1073.39 99.4873 1072.85 93.2861 1072.85 85.0342V60.1318C1072.85 51.0986 1073.83 44.043 1075.78 38.9648C1077.73 33.8867 1081.25 29.8096 1086.33 26.7334C1091.41 23.6572 1097.9 22.1191 1105.81 22.1191C1112.45 22.1191 1118.14 23.1201 1122.88 25.1221C1127.66 27.0752 1131.35 29.6387 1133.94 32.8125C1136.52 35.9863 1138.28 39.2578 1139.21 42.627C1140.19 45.9961 1140.67 51.123 1140.67 58.0078ZM1111.08 50.6836C1111.08 45.7031 1110.82 42.5781 1110.28 41.3086C1109.74 39.9902 1108.59 39.3311 1106.84 39.3311C1105.08 39.3311 1103.91 39.9902 1103.32 41.3086C1102.73 42.5781 1102.44 45.7031 1102.44 50.6836V94.5557C1102.44 99.1455 1102.73 102.148 1103.32 103.564C1103.91 104.932 1105.05 105.615 1106.76 105.615C1108.52 105.615 1109.67 104.98 1110.21 103.711C1110.79 102.441 1111.08 99.707 1111.08 95.5078V50.6836ZM1217.72 23.877V98.7305C1217.72 108.838 1217.48 115.381 1216.99 118.359C1216.55 121.289 1214.92 124.39 1212.08 127.661C1209.25 130.981 1205.3 133.496 1200.22 135.205C1195.19 136.963 1188.84 137.842 1181.18 137.842C1171.75 137.842 1164.18 136.23 1158.47 133.008C1152.76 129.834 1149.8 123.56 1149.61 114.185H1178.32C1178.32 118.481 1179.88 120.63 1183.01 120.63C1185.25 120.63 1186.74 119.971 1187.48 118.652C1188.21 117.334 1188.57 114.575 1188.57 110.376V103.052C1186.04 105.347 1183.35 107.08 1180.52 108.252C1177.73 109.424 1174.8 110.01 1171.73 110.01C1166.41 110.01 1162.01 108.936 1158.54 106.787C1155.13 104.639 1152.78 101.831 1151.51 98.3643C1150.24 94.8486 1149.61 89.8682 1149.61 83.4229V48.1201C1149.61 38.8916 1151.27 32.251 1154.59 28.1982C1157.91 24.1455 1162.96 22.1191 1169.75 22.1191C1173.46 22.1191 1176.83 22.876 1179.86 24.3896C1182.93 25.9033 1185.67 28.1738 1188.06 31.2012L1190.19 23.877H1217.72ZM1188.06 49.6582C1188.06 45.2148 1187.79 42.3828 1187.26 41.1621C1186.77 39.9414 1185.64 39.3311 1183.89 39.3311C1182.18 39.3311 1180.96 40.0391 1180.22 41.4551C1179.54 42.8223 1179.2 45.5566 1179.2 49.6582V82.3242C1179.2 86.6699 1179.47 89.502 1180 90.8203C1180.54 92.0898 1181.67 92.7246 1183.37 92.7246C1185.33 92.7246 1186.6 91.9434 1187.18 90.3809C1187.77 88.8184 1188.06 85.2783 1188.06 79.7607V49.6582Z" fill="#3066BB"/>
</svg>
